<mxfile host="app.diagrams.net" agent="Mozilla/5.0 (Windows NT 10.0; Win64; x64) AppleWebKit/537.36 (KHTML, like Gecko) Chrome/134.0.0.0 Safari/537.36 Edg/134.0.0.0" version="26.2.3">
  <diagram name="第 1 页" id="jb43djOx0PN8Vs2U1tRO">
    <mxGraphModel dx="2020" dy="1112" grid="1" gridSize="10" guides="1" tooltips="1" connect="1" arrows="1" fold="1" page="1" pageScale="1" pageWidth="827" pageHeight="1169" math="0" shadow="0">
      <root>
        <mxCell id="0" />
        <mxCell id="1" parent="0" />
        <mxCell id="wnD6bh5UoktSAJWszxP1-4" value="Output" style="rounded=1;whiteSpace=wrap;html=1;fillColor=#f5f5f5;fontColor=#333333;strokeColor=#666666;fontFamily=Times New Roman;" vertex="1" parent="1">
          <mxGeometry x="160" y="290" width="120" height="40" as="geometry" />
        </mxCell>
        <mxCell id="wnD6bh5UoktSAJWszxP1-15" value="" style="edgeStyle=orthogonalEdgeStyle;rounded=0;orthogonalLoop=1;jettySize=auto;html=1;fontFamily=Times New Roman;" edge="1" parent="1" source="wnD6bh5UoktSAJWszxP1-5" target="wnD6bh5UoktSAJWszxP1-4">
          <mxGeometry relative="1" as="geometry" />
        </mxCell>
        <mxCell id="wnD6bh5UoktSAJWszxP1-5" value="Model" style="rounded=1;whiteSpace=wrap;html=1;fillColor=#e1d5e7;strokeColor=#9673a6;fontFamily=Times New Roman;" vertex="1" parent="1">
          <mxGeometry x="160" y="380" width="120" height="40" as="geometry" />
        </mxCell>
        <mxCell id="wnD6bh5UoktSAJWszxP1-14" value="" style="edgeStyle=orthogonalEdgeStyle;rounded=0;orthogonalLoop=1;jettySize=auto;html=1;fontFamily=Times New Roman;" edge="1" parent="1" source="wnD6bh5UoktSAJWszxP1-6" target="wnD6bh5UoktSAJWszxP1-5">
          <mxGeometry relative="1" as="geometry" />
        </mxCell>
        <mxCell id="wnD6bh5UoktSAJWszxP1-6" value="Fusion" style="rounded=1;whiteSpace=wrap;html=1;fillColor=#f8cecc;strokeColor=#b85450;fontFamily=Times New Roman;" vertex="1" parent="1">
          <mxGeometry x="160" y="470" width="120" height="40" as="geometry" />
        </mxCell>
        <mxCell id="wnD6bh5UoktSAJWszxP1-11" style="rounded=0;orthogonalLoop=1;jettySize=auto;html=1;entryX=0.5;entryY=1;entryDx=0;entryDy=0;fontFamily=Times New Roman;" edge="1" parent="1" source="wnD6bh5UoktSAJWszxP1-7" target="wnD6bh5UoktSAJWszxP1-6">
          <mxGeometry relative="1" as="geometry" />
        </mxCell>
        <mxCell id="wnD6bh5UoktSAJWszxP1-7" value="Feature 1" style="rounded=1;whiteSpace=wrap;html=1;fillColor=#dae8fc;strokeColor=#6c8ebf;fontFamily=Times New Roman;" vertex="1" parent="1">
          <mxGeometry x="10" y="565" width="120" height="40" as="geometry" />
        </mxCell>
        <mxCell id="wnD6bh5UoktSAJWszxP1-12" style="edgeStyle=orthogonalEdgeStyle;rounded=0;orthogonalLoop=1;jettySize=auto;html=1;exitX=0.5;exitY=0;exitDx=0;exitDy=0;entryX=0.5;entryY=1;entryDx=0;entryDy=0;fontFamily=Times New Roman;" edge="1" parent="1" source="wnD6bh5UoktSAJWszxP1-8" target="wnD6bh5UoktSAJWszxP1-6">
          <mxGeometry relative="1" as="geometry" />
        </mxCell>
        <mxCell id="wnD6bh5UoktSAJWszxP1-8" value="Feature 2" style="rounded=1;whiteSpace=wrap;html=1;fillColor=#dae8fc;strokeColor=#6c8ebf;fontFamily=Times New Roman;" vertex="1" parent="1">
          <mxGeometry x="160" y="564.5" width="120" height="40" as="geometry" />
        </mxCell>
        <mxCell id="wnD6bh5UoktSAJWszxP1-13" style="rounded=0;orthogonalLoop=1;jettySize=auto;html=1;exitX=0.5;exitY=0;exitDx=0;exitDy=0;entryX=0.5;entryY=1;entryDx=0;entryDy=0;fontFamily=Times New Roman;" edge="1" parent="1" source="wnD6bh5UoktSAJWszxP1-9" target="wnD6bh5UoktSAJWszxP1-6">
          <mxGeometry relative="1" as="geometry" />
        </mxCell>
        <mxCell id="wnD6bh5UoktSAJWszxP1-9" value="Feature 3" style="rounded=1;whiteSpace=wrap;html=1;fillColor=#dae8fc;strokeColor=#6c8ebf;fontFamily=Times New Roman;" vertex="1" parent="1">
          <mxGeometry x="320" y="565" width="120" height="40" as="geometry" />
        </mxCell>
        <mxCell id="wnD6bh5UoktSAJWszxP1-10" value="..." style="text;html=1;align=center;verticalAlign=middle;whiteSpace=wrap;rounded=0;fontFamily=Times New Roman;" vertex="1" parent="1">
          <mxGeometry x="270" y="570" width="60" height="30" as="geometry" />
        </mxCell>
        <mxCell id="wnD6bh5UoktSAJWszxP1-28" value="Output" style="rounded=1;whiteSpace=wrap;html=1;fillColor=#f5f5f5;fontColor=#333333;strokeColor=#666666;fontFamily=Times New Roman;" vertex="1" parent="1">
          <mxGeometry x="622" y="290" width="120" height="40" as="geometry" />
        </mxCell>
        <mxCell id="wnD6bh5UoktSAJWszxP1-29" value="" style="edgeStyle=orthogonalEdgeStyle;rounded=0;orthogonalLoop=1;jettySize=auto;html=1;fontFamily=Times New Roman;" edge="1" parent="1" source="wnD6bh5UoktSAJWszxP1-30" target="wnD6bh5UoktSAJWszxP1-28">
          <mxGeometry relative="1" as="geometry" />
        </mxCell>
        <mxCell id="wnD6bh5UoktSAJWszxP1-30" value="Model" style="rounded=1;whiteSpace=wrap;html=1;fillColor=#e1d5e7;strokeColor=#9673a6;fontFamily=Times New Roman;" vertex="1" parent="1">
          <mxGeometry x="622" y="380" width="120" height="40" as="geometry" />
        </mxCell>
        <mxCell id="wnD6bh5UoktSAJWszxP1-31" value="" style="rounded=0;orthogonalLoop=1;jettySize=auto;html=1;entryX=0.5;entryY=1;entryDx=0;entryDy=0;fontFamily=Times New Roman;" edge="1" parent="1" source="wnD6bh5UoktSAJWszxP1-32" target="wnD6bh5UoktSAJWszxP1-30">
          <mxGeometry relative="1" as="geometry" />
        </mxCell>
        <mxCell id="wnD6bh5UoktSAJWszxP1-32" value="Fusion" style="rounded=1;whiteSpace=wrap;html=1;fillColor=#f8cecc;strokeColor=#b85450;fontFamily=Times New Roman;" vertex="1" parent="1">
          <mxGeometry x="540" y="469" width="120" height="40" as="geometry" />
        </mxCell>
        <mxCell id="wnD6bh5UoktSAJWszxP1-33" style="rounded=0;orthogonalLoop=1;jettySize=auto;html=1;entryX=0.5;entryY=1;entryDx=0;entryDy=0;fontFamily=Times New Roman;" edge="1" parent="1" source="wnD6bh5UoktSAJWszxP1-34" target="wnD6bh5UoktSAJWszxP1-32">
          <mxGeometry relative="1" as="geometry" />
        </mxCell>
        <mxCell id="wnD6bh5UoktSAJWszxP1-34" value="Feature 1" style="rounded=1;whiteSpace=wrap;html=1;fillColor=#dae8fc;strokeColor=#6c8ebf;fontFamily=Times New Roman;" vertex="1" parent="1">
          <mxGeometry x="472" y="565" width="120" height="40" as="geometry" />
        </mxCell>
        <mxCell id="wnD6bh5UoktSAJWszxP1-35" style="rounded=0;orthogonalLoop=1;jettySize=auto;html=1;exitX=0.5;exitY=0;exitDx=0;exitDy=0;entryX=0.5;entryY=1;entryDx=0;entryDy=0;fontFamily=Times New Roman;" edge="1" parent="1" source="wnD6bh5UoktSAJWszxP1-36" target="wnD6bh5UoktSAJWszxP1-32">
          <mxGeometry relative="1" as="geometry" />
        </mxCell>
        <mxCell id="wnD6bh5UoktSAJWszxP1-36" value="Feature 2" style="rounded=1;whiteSpace=wrap;html=1;fillColor=#dae8fc;strokeColor=#6c8ebf;fontFamily=Times New Roman;" vertex="1" parent="1">
          <mxGeometry x="622" y="564.5" width="120" height="40" as="geometry" />
        </mxCell>
        <mxCell id="wnD6bh5UoktSAJWszxP1-37" style="rounded=0;orthogonalLoop=1;jettySize=auto;html=1;exitX=0.5;exitY=0;exitDx=0;exitDy=0;entryX=0.5;entryY=1;entryDx=0;entryDy=0;fontFamily=Times New Roman;" edge="1" parent="1" source="wnD6bh5UoktSAJWszxP1-38" target="wnD6bh5UoktSAJWszxP1-30">
          <mxGeometry relative="1" as="geometry" />
        </mxCell>
        <mxCell id="wnD6bh5UoktSAJWszxP1-38" value="Feature 3" style="rounded=1;whiteSpace=wrap;html=1;fillColor=#dae8fc;strokeColor=#6c8ebf;fontFamily=Times New Roman;" vertex="1" parent="1">
          <mxGeometry x="782" y="565" width="120" height="40" as="geometry" />
        </mxCell>
        <mxCell id="wnD6bh5UoktSAJWszxP1-39" value="..." style="text;html=1;align=center;verticalAlign=middle;whiteSpace=wrap;rounded=0;fontFamily=Times New Roman;" vertex="1" parent="1">
          <mxGeometry x="732" y="570" width="60" height="30" as="geometry" />
        </mxCell>
        <mxCell id="wnD6bh5UoktSAJWszxP1-40" value="Output" style="rounded=1;whiteSpace=wrap;html=1;fillColor=#f5f5f5;fontColor=#333333;strokeColor=#666666;fontFamily=Times New Roman;" vertex="1" parent="1">
          <mxGeometry x="1078" y="289" width="120" height="40" as="geometry" />
        </mxCell>
        <mxCell id="wnD6bh5UoktSAJWszxP1-57" style="rounded=0;orthogonalLoop=1;jettySize=auto;html=1;entryX=0.5;entryY=1;entryDx=0;entryDy=0;fontFamily=Times New Roman;" edge="1" parent="1" source="wnD6bh5UoktSAJWszxP1-42" target="wnD6bh5UoktSAJWszxP1-44">
          <mxGeometry relative="1" as="geometry" />
        </mxCell>
        <mxCell id="wnD6bh5UoktSAJWszxP1-42" value="Model 1" style="rounded=1;whiteSpace=wrap;html=1;fillColor=#e1d5e7;strokeColor=#9673a6;fontFamily=Times New Roman;" vertex="1" parent="1">
          <mxGeometry x="920" y="470" width="120" height="40" as="geometry" />
        </mxCell>
        <mxCell id="wnD6bh5UoktSAJWszxP1-60" value="" style="edgeStyle=orthogonalEdgeStyle;rounded=0;orthogonalLoop=1;jettySize=auto;html=1;fontFamily=Times New Roman;" edge="1" parent="1" source="wnD6bh5UoktSAJWszxP1-44" target="wnD6bh5UoktSAJWszxP1-40">
          <mxGeometry relative="1" as="geometry" />
        </mxCell>
        <mxCell id="wnD6bh5UoktSAJWszxP1-44" value="Fusion" style="rounded=1;whiteSpace=wrap;html=1;fillColor=#f8cecc;strokeColor=#b85450;fontFamily=Times New Roman;" vertex="1" parent="1">
          <mxGeometry x="1078" y="370" width="120" height="40" as="geometry" />
        </mxCell>
        <mxCell id="wnD6bh5UoktSAJWszxP1-54" value="" style="edgeStyle=orthogonalEdgeStyle;rounded=0;orthogonalLoop=1;jettySize=auto;html=1;fontFamily=Times New Roman;" edge="1" parent="1" source="wnD6bh5UoktSAJWszxP1-46" target="wnD6bh5UoktSAJWszxP1-42">
          <mxGeometry relative="1" as="geometry" />
        </mxCell>
        <mxCell id="wnD6bh5UoktSAJWszxP1-46" value="Feature 1" style="rounded=1;whiteSpace=wrap;html=1;fillColor=#dae8fc;strokeColor=#6c8ebf;fontFamily=Times New Roman;" vertex="1" parent="1">
          <mxGeometry x="920" y="564" width="120" height="40" as="geometry" />
        </mxCell>
        <mxCell id="wnD6bh5UoktSAJWszxP1-55" value="" style="edgeStyle=orthogonalEdgeStyle;rounded=0;orthogonalLoop=1;jettySize=auto;html=1;fontFamily=Times New Roman;" edge="1" parent="1" source="wnD6bh5UoktSAJWszxP1-48" target="wnD6bh5UoktSAJWszxP1-52">
          <mxGeometry relative="1" as="geometry" />
        </mxCell>
        <mxCell id="wnD6bh5UoktSAJWszxP1-48" value="Feature 2" style="rounded=1;whiteSpace=wrap;html=1;fillColor=#dae8fc;strokeColor=#6c8ebf;fontFamily=Times New Roman;" vertex="1" parent="1">
          <mxGeometry x="1078" y="563.5" width="120" height="40" as="geometry" />
        </mxCell>
        <mxCell id="wnD6bh5UoktSAJWszxP1-56" value="" style="edgeStyle=orthogonalEdgeStyle;rounded=0;orthogonalLoop=1;jettySize=auto;html=1;fontFamily=Times New Roman;" edge="1" parent="1" source="wnD6bh5UoktSAJWszxP1-50" target="wnD6bh5UoktSAJWszxP1-53">
          <mxGeometry relative="1" as="geometry" />
        </mxCell>
        <mxCell id="wnD6bh5UoktSAJWszxP1-50" value="Feature 3" style="rounded=1;whiteSpace=wrap;html=1;fillColor=#dae8fc;strokeColor=#6c8ebf;fontFamily=Times New Roman;" vertex="1" parent="1">
          <mxGeometry x="1238" y="564" width="120" height="40" as="geometry" />
        </mxCell>
        <mxCell id="wnD6bh5UoktSAJWszxP1-51" value="..." style="text;html=1;align=center;verticalAlign=middle;whiteSpace=wrap;rounded=0;fontFamily=Times New Roman;" vertex="1" parent="1">
          <mxGeometry x="1188" y="569" width="60" height="30" as="geometry" />
        </mxCell>
        <mxCell id="wnD6bh5UoktSAJWszxP1-58" value="" style="edgeStyle=orthogonalEdgeStyle;rounded=0;orthogonalLoop=1;jettySize=auto;html=1;fontFamily=Times New Roman;" edge="1" parent="1" source="wnD6bh5UoktSAJWszxP1-52" target="wnD6bh5UoktSAJWszxP1-44">
          <mxGeometry relative="1" as="geometry" />
        </mxCell>
        <mxCell id="wnD6bh5UoktSAJWszxP1-52" value="Model 1" style="rounded=1;whiteSpace=wrap;html=1;fillColor=#e1d5e7;strokeColor=#9673a6;fontFamily=Times New Roman;" vertex="1" parent="1">
          <mxGeometry x="1078" y="470" width="120" height="40" as="geometry" />
        </mxCell>
        <mxCell id="wnD6bh5UoktSAJWszxP1-59" style="rounded=0;orthogonalLoop=1;jettySize=auto;html=1;entryX=0.5;entryY=1;entryDx=0;entryDy=0;fontFamily=Times New Roman;" edge="1" parent="1" source="wnD6bh5UoktSAJWszxP1-53" target="wnD6bh5UoktSAJWszxP1-44">
          <mxGeometry relative="1" as="geometry" />
        </mxCell>
        <mxCell id="wnD6bh5UoktSAJWszxP1-53" value="Model 1" style="rounded=1;whiteSpace=wrap;html=1;fillColor=#e1d5e7;strokeColor=#9673a6;fontFamily=Times New Roman;" vertex="1" parent="1">
          <mxGeometry x="1238" y="469" width="120" height="40" as="geometry" />
        </mxCell>
        <mxCell id="wnD6bh5UoktSAJWszxP1-61" value="&lt;div&gt;前融合&lt;/div&gt;Early Fusion" style="text;html=1;align=center;verticalAlign=middle;whiteSpace=wrap;rounded=0;fontFamily=Times New Roman;fontStyle=1" vertex="1" parent="1">
          <mxGeometry x="170" y="619" width="100" height="30" as="geometry" />
        </mxCell>
        <mxCell id="wnD6bh5UoktSAJWszxP1-62" value="&lt;div&gt;&lt;strong style=&quot;margin: 0px; padding: 0px; border: 0px; font-variant-numeric: inherit; font-variant-east-asian: inherit; font-variant-alternates: inherit; font-variant-position: inherit; font-variant-emoji: inherit; font-stretch: inherit; font-size: 16px; line-height: inherit; font-optical-sizing: inherit; font-size-adjust: inherit; font-kerning: inherit; font-feature-settings: inherit; font-variation-settings: inherit; vertical-align: baseline; color: rgba(0, 0, 0, 0.9); text-align: start; background-color: rgb(252, 252, 252);&quot;&gt;中融合&lt;/strong&gt;&lt;/div&gt;&lt;strong style=&quot;margin: 0px; padding: 0px; border: 0px; font-variant-numeric: inherit; font-variant-east-asian: inherit; font-variant-alternates: inherit; font-variant-position: inherit; font-variant-emoji: inherit; font-stretch: inherit; font-size: 16px; line-height: inherit; font-optical-sizing: inherit; font-size-adjust: inherit; font-kerning: inherit; font-feature-settings: inherit; font-variation-settings: inherit; vertical-align: baseline; color: rgba(0, 0, 0, 0.9); text-align: start; background-color: rgb(252, 252, 252);&quot;&gt;Intermediate Fusion&lt;/strong&gt;" style="text;html=1;align=center;verticalAlign=middle;whiteSpace=wrap;rounded=0;fontFamily=Times New Roman;fontStyle=1;horizontal=1;" vertex="1" parent="1">
          <mxGeometry x="590" y="619" width="180" height="30" as="geometry" />
        </mxCell>
        <mxCell id="wnD6bh5UoktSAJWszxP1-63" value="&lt;div&gt;后融合&lt;/div&gt;Late Fusion" style="text;html=1;align=center;verticalAlign=middle;whiteSpace=wrap;rounded=0;fontFamily=Times New Roman;fontStyle=1;spacingBottom=0;spacing=3;" vertex="1" parent="1">
          <mxGeometry x="1088" y="619" width="100" height="30" as="geometry" />
        </mxCell>
      </root>
    </mxGraphModel>
  </diagram>
</mxfile>
